<svg width="18" height="18" viewBox="0 0 18 18" fill="none" xmlns="http://www.w3.org/2000/svg">
<path d="M5.2906 8.93733C6.04178 10.4886 7.29615 11.7397 8.84933 12.4869C8.9639 12.5412 9.09062 12.5647 9.21702 12.5551C9.34342 12.5455 9.46514 12.5031 9.5702 12.4322L11.8514 10.9083C11.9522 10.84 12.0687 10.7982 12.19 10.7871C12.3112 10.7759 12.4334 10.7956 12.5449 10.8444L16.8154 12.6786C16.9614 12.7393 17.0833 12.8463 17.1624 12.9832C17.2416 13.1201 17.2736 13.2791 17.2534 13.4359C17.1181 14.4924 16.6024 15.4633 15.8029 16.167C15.0035 16.8707 13.975 17.259 12.9099 17.2593C9.61861 17.2593 6.4621 15.9518 4.13479 13.6245C1.80747 11.2972 0.5 8.14067 0.5 4.84935C0.50024 3.78429 0.888554 2.7558 1.59228 1.95634C2.29601 1.15688 3.26692 0.641228 4.32335 0.505876C4.48016 0.485734 4.63923 0.517696 4.77608 0.59684C4.91294 0.675984 5.01998 0.79792 5.08072 0.943873L6.91484 5.22348C6.96254 5.33329 6.98249 5.45315 6.97294 5.5725C6.96339 5.69184 6.92464 5.80701 6.86009 5.90785L5.33622 8.22558C5.26838 8.33041 5.22856 8.45089 5.22057 8.57551C5.21259 8.70012 5.2367 8.8247 5.2906 8.93733V8.93733Z" stroke="#0D0D0D" stroke-linecap="round" stroke-linejoin="round"/>
</svg>
